<svg width="35" height="35" viewBox="0 0 35 35" fill="none" xmlns="http://www.w3.org/2000/svg">
<path d="M12.2281 11.2437C12.3922 10.5656 13.0047 10.0625 13.7375 10.0625C14.4922 10.0625 15.1266 10.5984 15.2688 11.3203C15.2771 11.3576 15.2768 11.3963 15.2679 11.4334C15.2591 11.4706 15.2419 11.5052 15.2176 11.5347C15.1934 11.5643 15.1627 11.5879 15.128 11.6038C15.0933 11.6197 15.0554 11.6275 15.0172 11.6266H14.9297C14.9516 11.5391 14.9625 11.4516 14.9625 11.3641C14.9625 10.8172 14.525 10.3687 13.9672 10.3687C13.8141 10.369 13.6631 10.4045 13.526 10.4724C13.3888 10.5404 13.269 10.6389 13.176 10.7605C13.083 10.8821 13.0192 11.0234 12.9894 11.1736C12.9597 11.3237 12.965 11.4787 13.0047 11.6266H12.5234C12.3266 11.6266 12.1734 11.4297 12.2281 11.2437ZM20.5953 11.2437C20.4313 10.5656 19.8188 10.0625 19.0859 10.0625C18.3203 10.0625 17.6969 10.5984 17.5547 11.3203C17.5219 11.4844 17.6422 11.6266 17.8063 11.6266H17.8938C17.8721 11.5407 17.8611 11.4526 17.8609 11.3641C17.8595 11.233 17.8842 11.1029 17.9337 10.9814C17.9832 10.86 18.0565 10.7497 18.1492 10.657C18.2419 10.5643 18.3522 10.491 18.4736 10.4415C18.5951 10.392 18.7251 10.3673 18.8563 10.3687C19.0093 10.369 19.1603 10.4045 19.2975 10.4724C19.4347 10.5404 19.5544 10.6389 19.6474 10.7605C19.7405 10.8821 19.8043 11.0234 19.834 11.1736C19.8637 11.3237 19.8585 11.4787 19.8188 11.6266H20.3C20.4969 11.6266 20.6391 11.4406 20.5953 11.2437Z" fill="#111111"/>
<path d="M14.5359 11.3531C14.5359 11.0359 14.2844 10.7843 13.9672 10.7843C13.8907 10.7839 13.8148 10.7988 13.7441 10.8281C13.7707 10.8516 13.7896 10.8827 13.7982 10.9172C13.8067 10.9517 13.8046 10.988 13.792 11.0213C13.7794 11.0546 13.757 11.0832 13.7277 11.1034C13.6984 11.1236 13.6637 11.1344 13.6281 11.1343C13.599 11.1343 13.5703 11.127 13.5447 11.113C13.5191 11.0991 13.4974 11.079 13.4816 11.0545C13.4306 11.1386 13.4022 11.2344 13.3991 11.3327C13.396 11.431 13.4184 11.5285 13.4641 11.6156H14.4703C14.5141 11.539 14.5359 11.4515 14.5359 11.3531ZM18.6484 10.8226C18.7564 10.7778 18.8757 10.7677 18.9897 10.7936C19.1037 10.8195 19.2069 10.8801 19.2849 10.9672C19.363 11.0542 19.412 11.1634 19.4254 11.2795C19.4387 11.3957 19.4157 11.5131 19.3594 11.6156H18.3531C18.3055 11.5253 18.283 11.4238 18.288 11.3218C18.293 11.2199 18.3253 11.1211 18.3816 11.0359C18.3931 11.0594 18.4098 11.0801 18.4303 11.0963C18.4509 11.1126 18.4749 11.124 18.5004 11.1297C18.526 11.1355 18.5526 11.1354 18.5781 11.1295C18.6036 11.1236 18.6275 11.112 18.648 11.0957C18.6685 11.0793 18.685 11.0586 18.6964 11.0349C18.7078 11.0113 18.7137 10.9855 18.7138 10.9593C18.7138 10.933 18.708 10.9072 18.6966 10.8835C18.6853 10.8599 18.6689 10.839 18.6484 10.8226ZM15.4875 13.1468L16.0672 11.2765C16.1984 10.8609 16.7781 10.8609 16.8984 11.2765L17.4781 13.1468C17.5984 13.5296 17.3141 13.9234 16.9094 13.9234H16.0563C15.6516 13.9234 15.3672 13.5296 15.4875 13.1468ZM16.4063 14.9625C15.8156 14.9625 15.2578 14.8203 14.7875 14.5687C14.6234 14.4812 14.4594 14.6671 14.5578 14.8203C14.9516 15.4218 15.6297 15.8265 16.4063 15.8265C17.1828 15.8265 17.8609 15.4218 18.2547 14.8203C18.3531 14.6671 18.1781 14.4921 18.025 14.5687C17.5547 14.8203 17.0078 14.9625 16.4063 14.9625Z" fill="#111111"/>
<path d="M30.0748 27.8983C30.0781 27.9311 30.0792 27.9639 30.0781 27.9978V31.8391C30.0781 32.2365 29.9203 32.6176 29.6392 32.8986C29.3582 33.1796 28.9771 33.3375 28.5797 33.3375H28.5731C28.5256 33.3519 28.4762 33.3593 28.4266 33.3594H4.37501C4.22997 33.3594 4.09087 33.3017 3.98831 33.1992C3.88575 33.0966 3.82813 32.9575 3.82813 32.8125V28.9844C3.81727 26.5781 4.5012 24.2198 5.79781 22.1928C7.09442 20.1657 8.94858 18.556 11.1377 17.5569C11.0859 17.4857 11.0367 17.4127 10.99 17.3381C10.4205 17.1201 9.92947 16.7364 9.58028 16.2365C9.23109 15.7366 9.03979 15.1435 9.0311 14.5337V13.7528C8.74402 13.5045 8.51975 13.1918 8.37662 12.8402C8.23349 12.4887 8.17556 12.1083 8.20756 11.73C8.23955 11.3518 8.36058 10.9865 8.56073 10.664C8.76089 10.3415 9.0345 10.0709 9.35922 9.87436V8.50827C9.17683 7.65204 9.17775 6.76691 9.36193 5.91106C9.54611 5.05522 9.90937 4.24805 10.4278 3.54264C11.0355 2.89657 11.7774 2.39147 12.6013 2.06287C13.4252 1.73427 14.311 1.59014 15.1966 1.64061H17.6608C18.5477 1.58921 19.4352 1.73288 20.2606 2.0615C21.086 2.39012 21.8294 2.8957 22.4383 3.54264C22.9621 4.26278 23.3274 5.08573 23.51 5.95728C23.6927 6.82882 23.6887 7.72919 23.4981 8.59905V9.88093C23.8186 10.0773 24.0886 10.346 24.2865 10.6655C24.4844 10.985 24.6047 11.3465 24.6377 11.7208C24.6708 12.0952 24.6157 12.4721 24.4769 12.8214C24.338 13.1706 24.1193 13.4825 23.8383 13.732V14.5337C23.8375 15.1051 23.6733 15.6643 23.3652 16.1455C23.0571 16.6267 22.6178 17.0097 22.0992 17.2495C22.0205 17.383 21.9341 17.512 21.8422 17.6378C22.4 17.9112 22.9359 18.223 23.4467 18.5741C23.2695 18.9066 23.1427 19.2631 23.0705 19.6339L23.0617 19.6273C22.9414 20.2376 22.9728 20.8681 23.153 21.4635C23.3332 22.0589 23.6568 22.6009 24.0953 23.042V26.8187C24.307 26.6515 24.562 26.5479 24.8303 26.5201C24.876 26.5079 24.923 26.5017 24.9703 26.5016H25.7359V23.0628C25.7359 22.9534 25.6703 22.8441 25.5719 22.7894C25.1633 22.5788 24.8141 22.2691 24.5561 21.8887C24.2982 21.5083 24.1397 21.0692 24.0953 20.6117V20.1195C24.1348 19.6707 24.2855 19.2388 24.5337 18.8628C24.782 18.4868 25.12 18.1786 25.5172 17.9659C25.725 17.8566 25.9875 18.0097 25.9875 18.2503V19.9566C25.9875 20.405 26.3375 20.7659 26.7859 20.7769C27.2453 20.7878 27.6172 20.405 27.6172 19.9456V18.2503C27.6172 18.0097 27.8797 17.8675 28.0875 17.9769C28.9406 18.4362 29.5203 19.3441 29.5313 20.3612C29.5313 21.4003 28.9516 22.3081 28.0875 22.7675C27.9891 22.8222 27.9234 22.9316 27.9234 23.0409V24.2276C28.1696 24.1491 28.4307 24.1297 28.6858 24.1709C28.9408 24.2121 29.1825 24.3129 29.3913 24.4651C29.6001 24.6172 29.7701 24.8164 29.8876 25.0465C30.005 25.2766 30.0665 25.5312 30.0672 25.7895V27.8173L30.0748 27.8983ZM21.8313 18.8617C21.6658 18.7724 21.498 18.6874 21.3281 18.6069V23.0562C21.3281 24.0045 20.2694 24.5448 19.5038 24.0078L19.4819 23.9914L16.5025 21.4178C16.4757 21.3948 16.4416 21.3821 16.4063 21.3821C16.3709 21.3821 16.3368 21.3948 16.31 21.4178L13.3306 23.9914L13.3088 24.0067C13.1351 24.1292 12.9312 24.2016 12.7192 24.2158C12.5072 24.2301 12.2953 24.1857 12.1069 24.0875C11.9185 23.9893 11.7607 23.8412 11.6509 23.6593C11.5411 23.4773 11.4835 23.2687 11.4844 23.0562V18.6025C11.3258 18.6769 11.1683 18.7556 11.0141 18.8366V24.7078C11.0141 24.9594 11.2109 25.1562 11.4625 25.1562H21.3828C21.6344 25.1562 21.8313 24.9594 21.8313 24.7078V18.8617ZM8.75001 20.4061C7.54006 21.4827 6.57299 22.8044 5.91297 24.2833C5.25296 25.7623 4.91512 27.3648 4.92188 28.9844V32.2656H8.75001V20.4061ZM28.9734 26.4545V25.7884C28.9734 25.4887 28.7263 25.2416 28.4266 25.2416C28.3192 25.2423 28.2144 25.2744 28.1251 25.3338C28.0357 25.3933 27.9656 25.4775 27.9234 25.5762V26.4556L28.9734 26.4545ZM24.9703 32.2437H28.5797C28.687 32.2437 28.79 32.2011 28.8659 32.1252C28.9417 32.0493 28.9844 31.9464 28.9844 31.8391V28.0022C28.981 27.9753 28.9784 27.9483 28.9767 27.9212C28.9585 27.8294 28.909 27.7466 28.8366 27.6872C28.7642 27.6278 28.6734 27.5953 28.5797 27.5953H25.0797C25.0437 27.6026 25.007 27.6062 24.9703 27.6062C24.7986 27.6062 24.6783 27.7397 24.675 27.8709V27.8786C24.6744 27.9255 24.6858 27.9717 24.7082 28.0129C24.7307 28.0541 24.7633 28.0888 24.803 28.1137C24.8783 28.1639 24.94 28.232 24.9826 28.3119C25.0251 28.3918 25.0472 28.481 25.0467 28.5716C25.0463 28.6621 25.0234 28.7511 24.9801 28.8306C24.9368 28.9101 24.8744 28.9776 24.7986 29.027C24.7615 29.0507 24.7309 29.0832 24.7093 29.1215C24.6878 29.1598 24.676 29.2029 24.675 29.2469C24.675 29.3453 24.722 29.4186 24.7877 29.4601C24.866 29.5086 24.9307 29.576 24.976 29.6562C25.0213 29.7363 25.0456 29.8266 25.0467 29.9187C25.0478 30.0108 25.0256 30.1016 24.9823 30.1828C24.9389 30.264 24.8757 30.333 24.7986 30.3833C24.7615 30.407 24.7309 30.4394 24.7093 30.4777C24.6878 30.5161 24.676 30.5591 24.675 30.6031C24.675 30.7016 24.722 30.7748 24.7877 30.8164C24.8655 30.8646 24.93 30.9316 24.9752 31.0113C25.0204 31.0909 25.0449 31.1806 25.0464 31.2721C25.0479 31.3637 25.0264 31.4542 24.9839 31.5352C24.9414 31.6163 24.8792 31.6854 24.803 31.7362C24.7629 31.7642 24.7303 31.8016 24.708 31.845C24.6857 31.8885 24.6744 31.9368 24.675 31.9856C24.6816 32.1147 24.8008 32.2437 24.9703 32.2437ZM13.6806 18.8103C13.2888 18.6581 12.9182 18.4559 12.5781 18.2087V23.0562C12.5781 23.0781 12.5836 23.0891 12.5869 23.0956C12.5932 23.105 12.6019 23.1126 12.612 23.1175C12.6221 23.1229 12.6334 23.1255 12.6448 23.1251C12.6525 23.1249 12.6599 23.1231 12.6667 23.1197L15.3825 20.7747C14.9612 20.6092 14.5862 20.344 14.2898 20.0019C13.9934 19.6598 13.7844 19.2509 13.6806 18.8103ZM9.75626 11.5828C9.75626 12.2894 10.3294 12.8625 11.0359 12.8625L11.5642 12.8603L11.69 14.7755C11.8174 15.6811 12.2671 16.5105 12.9566 17.1114C13.6461 17.7123 14.5292 18.0445 15.4438 18.0469H17.5219C18.4368 18.0463 19.3207 17.715 20.0106 17.114C20.7005 16.513 21.1497 15.6828 21.2756 14.7766L21.3927 12.8975L21.863 12.8581C22.1083 12.8375 22.3424 12.7465 22.5374 12.5961C22.7323 12.4457 22.8797 12.2423 22.9619 12.0102C23.0441 11.7782 23.0576 11.5273 23.0008 11.2878C22.944 11.0482 22.8193 10.8301 22.6417 10.6597C22.6065 10.6358 22.5742 10.6079 22.5455 10.5766C22.3918 10.4552 22.2121 10.371 22.0205 10.3305L21.5589 10.2331L21.5884 9.75186C21.2237 9.83934 20.84 9.79919 20.5013 9.63811C20.4794 9.67425 20.4502 9.70536 20.4154 9.7294C20.3807 9.75344 20.3413 9.76988 20.2998 9.77762C20.2583 9.78537 20.2156 9.78425 20.1745 9.77434C20.1335 9.76444 20.095 9.74597 20.0616 9.72015L20.2344 9.49702L20.0616 9.71905L20.0594 9.71796L20.0408 9.70483C19.9097 9.6185 19.7701 9.54592 19.6241 9.48827C19.2422 9.33718 18.8287 9.28343 18.4209 9.33186C18.3523 9.33994 18.283 9.32406 18.2248 9.2869C18.1665 9.24975 18.1229 9.19362 18.1013 9.12799C18.0797 9.06237 18.0814 8.9913 18.1061 8.9268C18.1309 8.8623 18.1772 8.80834 18.2372 8.77405C17.636 8.64116 17.022 8.57441 16.4063 8.57499C15.7358 8.57499 15.1266 8.65265 14.583 8.77186C14.6439 8.80544 14.6912 8.85916 14.7169 8.92382C14.7425 8.98848 14.7449 9.06004 14.7235 9.12625C14.7022 9.19245 14.6585 9.24917 14.5999 9.28669C14.5414 9.3242 14.4716 9.34017 14.4025 9.33186C13.8692 9.26895 13.3299 9.38104 12.8658 9.65124C12.8375 9.6682 12.8098 9.68608 12.7827 9.70483L12.7641 9.71796L12.7619 9.72015C12.7281 9.74616 12.6892 9.76468 12.6478 9.77447C12.6063 9.78426 12.5632 9.78509 12.5214 9.77692C12.4796 9.76874 12.44 9.75174 12.4053 9.72705C12.3705 9.70236 12.3415 9.67055 12.32 9.63374C12.0138 9.78139 11.6802 9.82624 11.3619 9.77811L11.3925 10.2506L10.8784 10.313C10.7012 10.3347 10.5305 10.3935 10.3775 10.4858C10.3113 10.5997 10.2066 10.6862 10.0822 10.7297C9.87985 10.9561 9.75626 11.2547 9.75626 11.5828ZM12.2938 9.38874L12.1888 9.19843L12.2948 9.38655L12.2938 9.38874ZM15.4438 19.1406C15.2906 19.1406 15.1386 19.1341 14.9888 19.1187C15.1437 19.35 15.3529 19.5398 15.5982 19.6714C15.8435 19.8031 16.1173 19.8726 16.3957 19.8739C16.674 19.8752 16.9485 19.8082 17.195 19.6788C17.4414 19.5495 17.6525 19.3617 17.8095 19.1319C17.7138 19.1376 17.6178 19.1405 17.5219 19.1406H15.4438ZM17.4289 20.7736L20.1469 23.1197C20.1534 23.1229 20.1604 23.1248 20.1677 23.1251C20.1791 23.1255 20.1904 23.1229 20.2005 23.1175C20.2107 23.1126 20.2193 23.105 20.2256 23.0956C20.2323 23.0836 20.2354 23.0699 20.2344 23.0562V18.3181C19.8863 18.5517 19.5095 18.7391 19.1133 18.8759C19.0003 19.3018 18.789 19.6953 18.4965 20.0248C18.204 20.3544 17.8384 20.6108 17.4289 20.7736ZM20.2322 6.84249C19.0387 6.28738 17.7384 5.99977 16.4221 5.99977C15.1059 5.99977 13.8055 6.28738 12.612 6.84249L12.6077 6.84468C12.0493 7.10282 11.5298 7.43784 11.0644 7.83999L11.1869 7.99311C11.3619 8.20749 11.6638 8.26327 11.8956 8.13421L11.8978 8.13311C13.2865 7.37297 14.845 6.97675 16.4281 6.98139C18.5041 6.98139 20.0714 7.64311 20.9584 8.13311H20.9606C21.0735 8.1963 21.205 8.21745 21.332 8.19282C21.4589 8.16819 21.573 8.09937 21.6541 7.99858L21.6563 7.9953L21.7809 7.84108C21.3111 7.44117 20.7903 7.10538 20.2322 6.84249ZM14.9844 28.1531C14.9844 27.3766 14.35 26.7422 13.5734 26.7422H11.9875C11.2109 26.7422 10.5766 27.3766 10.5766 28.1531C10.5766 28.9297 11.2109 29.5641 11.9875 29.5641H13.5734C14.3609 29.5641 14.9844 28.9406 14.9844 28.1531Z" fill="#111111"/>
</svg>
