<svg width="57" height="57" viewBox="0 0 57 57" fill="none" xmlns="http://www.w3.org/2000/svg">
<path d="M38.2969 16.0312C39.7725 16.0312 40.9688 14.835 40.9688 13.3594C40.9688 11.8837 39.7725 10.6875 38.2969 10.6875C36.8212 10.6875 35.625 11.8837 35.625 13.3594C35.625 14.835 36.8212 16.0312 38.2969 16.0312Z" fill="#C63E46"/>
<path d="M25.6749 35.625H16.0312V25.9813L26.7722 15.2404C26.736 14.9115 26.7182 14.5809 26.7188 14.25C26.7188 12.1362 27.3456 10.0699 28.5199 8.31235C29.6943 6.5548 31.3634 5.18495 33.3163 4.37604C35.2692 3.56713 37.4181 3.35548 39.4913 3.76786C41.5644 4.18024 43.4688 5.19813 44.9635 6.6928C46.4581 8.18747 47.476 10.0918 47.8884 12.165C48.3008 14.2381 48.0891 16.387 47.2802 18.3399C46.4713 20.2928 45.1015 21.962 43.3439 23.1363C41.5864 24.3107 39.52 24.9375 37.4062 24.9375C37.0754 24.9381 36.7448 24.9203 36.4159 24.8841L25.6749 35.625ZM19.5938 32.0625H24.2001L35.1904 21.0722L36.1131 21.2414C36.5392 21.3253 36.972 21.37 37.4062 21.375C38.8961 21.3933 40.355 20.9499 41.5827 20.1057C42.8103 19.2615 43.7465 18.0578 44.2625 16.6601C44.7786 15.2624 44.8492 13.7392 44.4647 12.2998C44.0802 10.8603 43.2594 9.5752 42.1151 8.621C40.9709 7.66679 39.5592 7.0903 38.0741 6.9707C36.589 6.85111 35.1032 7.19428 33.821 7.95307C32.5388 8.71187 31.5229 9.84907 30.913 11.2084C30.3031 12.5678 30.1291 14.0827 30.4148 15.545L30.5841 16.4659L19.5938 27.4562V32.0625ZM49.875 35.625H33.8438V39.1875H49.875V49.875H7.125V39.1875H10.6875V35.625H7.125C6.18017 35.625 5.27403 36.0003 4.60593 36.6684C3.93783 37.3365 3.5625 38.2427 3.5625 39.1875V49.875C3.5625 50.8198 3.93783 51.726 4.60593 52.3941C5.27403 53.0622 6.18017 53.4375 7.125 53.4375H49.875C50.8198 53.4375 51.726 53.0622 52.3941 52.3941C53.0622 51.726 53.4375 50.8198 53.4375 49.875V39.1875C53.4375 38.2427 53.0622 37.3365 52.3941 36.6684C51.726 36.0003 50.8198 35.625 49.875 35.625Z" fill="#C63E46"/>
<path d="M12.4688 46.3125C13.4525 46.3125 14.25 45.515 14.25 44.5312C14.25 43.5475 13.4525 42.75 12.4688 42.75C11.485 42.75 10.6875 43.5475 10.6875 44.5312C10.6875 45.515 11.485 46.3125 12.4688 46.3125Z" fill="#C63E46"/>
</svg>
