<svg width="35" height="35" viewBox="0 0 35 35" fill="none" xmlns="http://www.w3.org/2000/svg">
<path d="M17.5 4.375C15.6479 4.375 14 5.54167 13.3875 7.29167H4.375V10.2083H7.21875L2.91667 20.4167C2.23125 23.3333 4.375 24.7917 8.02083 24.7917C11.6667 24.7917 13.9417 23.3333 13.125 20.4167L8.82292 10.2083H13.3729C13.8542 11.4479 14.8021 12.3958 16.0417 12.8771V29.1667H2.91667V32.0833H32.0833V29.1667H18.9583V12.8625C20.1979 12.3958 21.1458 11.4479 21.6125 10.2083H26.1771L21.875 20.4167C21.1896 23.3333 23.3333 24.7917 26.9792 24.7917C30.625 24.7917 32.9 23.3333 32.0833 20.4167L27.7812 10.2083H30.625V7.29167H21.6271C21 5.54167 19.3521 4.375 17.5 4.375ZM17.5 7.29167C17.8868 7.29167 18.2577 7.44531 18.5312 7.7188C18.8047 7.99229 18.9583 8.36323 18.9583 8.75C18.9583 9.13677 18.8047 9.50771 18.5312 9.7812C18.2577 10.0547 17.8868 10.2083 17.5 10.2083C17.1132 10.2083 16.7423 10.0547 16.4688 9.7812C16.1953 9.50771 16.0417 9.13677 16.0417 8.75C16.0417 8.36323 16.1953 7.99229 16.4688 7.7188C16.7423 7.44531 17.1132 7.29167 17.5 7.29167ZM8.02083 14.9479L10.2083 20.4167H5.83333L8.02083 14.9479ZM26.9792 14.9479L29.1667 20.4167H24.7917L26.9792 14.9479Z" fill="#111111"/>
</svg>
