<svg width="60" height="60" viewBox="0 0 60 60" fill="none" xmlns="http://www.w3.org/2000/svg">
<path d="M30 52.405C24.9767 50.9133 20.8042 47.8708 17.4825 43.2775C14.1608 38.6842 12.5 33.5083 12.5 27.75V14.23L30 7.6925L47.5 14.23V27.75C47.5 33.5067 45.8392 38.6817 42.5175 43.275C39.1958 47.8683 35.0233 50.91 30 52.405ZM30 49.7525C34.0417 48.5025 37.4167 46.0342 40.125 42.3475C42.8333 38.6608 44.4167 34.545 44.875 30H30V10.36L15 15.9375V28.8275C15 29.1508 15.0417 29.5417 15.125 30H30V49.7525Z" fill="#C63E46"/>
</svg>
