<svg width="20" height="20" viewBox="0 0 20 20" fill="none" xmlns="http://www.w3.org/2000/svg">
<path fill-rule="evenodd" clip-rule="evenodd" d="M1.66666 10C1.66666 5.39752 5.39749 1.66669 9.99999 1.66669C14.6025 1.66669 18.3333 5.39752 18.3333 10C18.3333 14.6025 14.6025 18.3334 9.99999 18.3334C5.39749 18.3334 1.66666 14.6025 1.66666 10ZM9.99999 3.33335C8.23188 3.33335 6.53619 4.03573 5.28594 5.28598C4.0357 6.53622 3.33332 8.23191 3.33332 10C3.33332 11.7681 4.0357 13.4638 5.28594 14.7141C6.53619 15.9643 8.23188 16.6667 9.99999 16.6667C11.7681 16.6667 13.4638 15.9643 14.714 14.7141C15.9643 13.4638 16.6667 11.7681 16.6667 10C16.6667 8.23191 15.9643 6.53622 14.714 5.28598C13.4638 4.03573 11.7681 3.33335 9.99999 3.33335Z" fill="white"/>
<path fill-rule="evenodd" clip-rule="evenodd" d="M10.8333 5.83333C10.8333 5.61232 10.7455 5.40036 10.5893 5.24408C10.433 5.0878 10.221 5 10 5C9.77899 5 9.56702 5.0878 9.41074 5.24408C9.25446 5.40036 9.16667 5.61232 9.16667 5.83333V9.16667H5.83333C5.61232 9.16667 5.40036 9.25446 5.24408 9.41074C5.0878 9.56702 5 9.77899 5 10C5 10.221 5.0878 10.433 5.24408 10.5893C5.40036 10.7455 5.61232 10.8333 5.83333 10.8333H9.16667V14.1667C9.16667 14.3877 9.25446 14.5996 9.41074 14.7559C9.56702 14.9122 9.77899 15 10 15C10.221 15 10.433 14.9122 10.5893 14.7559C10.7455 14.5996 10.8333 14.3877 10.8333 14.1667V10.8333H14.1667C14.3877 10.8333 14.5996 10.7455 14.7559 10.5893C14.9122 10.433 15 10.221 15 10C15 9.77899 14.9122 9.56702 14.7559 9.41074C14.5996 9.25446 14.3877 9.16667 14.1667 9.16667H10.8333V5.83333Z" fill="white"/>
</svg>
