<svg width="32" height="32" viewBox="0 0 32 32" fill="none" xmlns="http://www.w3.org/2000/svg">
<g clip-path="url(#clip0_99_774)">
<path fill-rule="evenodd" clip-rule="evenodd" d="M11.4286 0C11.1255 0 10.8348 0.120408 10.6205 0.334735C10.4061 0.549062 10.2857 0.839753 10.2857 1.14286V10.2857H1.14286C0.839753 10.2857 0.549062 10.4061 0.334735 10.6205C0.120408 10.8348 0 11.1255 0 11.4286L0 20.5714C0 20.8745 0.120408 21.1652 0.334735 21.3796C0.549062 21.5939 0.839753 21.7143 1.14286 21.7143H10.2857V30.8571C10.2857 31.1602 10.4061 31.4509 10.6205 31.6653C10.8348 31.8796 11.1255 32 11.4286 32H20.5714C20.8745 32 21.1652 31.8796 21.3796 31.6653C21.5939 31.4509 21.7143 31.1602 21.7143 30.8571V21.7143H30.8571C31.1602 21.7143 31.4509 21.5939 31.6653 21.3796C31.8796 21.1652 32 20.8745 32 20.5714V11.4286C32 11.1255 31.8796 10.8348 31.6653 10.6205C31.4509 10.4061 31.1602 10.2857 30.8571 10.2857H21.7143V1.14286C21.7143 0.839753 21.5939 0.549062 21.3796 0.334735C21.1652 0.120408 20.8745 0 20.5714 0L11.4286 0Z" fill="#111111"/>
</g>
<defs>
<clipPath id="clip0_99_774">
<rect width="32" height="32" fill="white"/>
</clipPath>
</defs>
</svg>
