<svg width="34" height="34" viewBox="0 0 34 34" fill="none" xmlns="http://www.w3.org/2000/svg">
<path d="M19.1493 14.5048L19.7 14.4332L19.9737 14.859L19.6287 15.2508L19.1493 14.5048ZM21.8825 23.2628H21.0819V25.2079H21.8859L21.8825 23.2628ZM21.5851 24.8502H21.2349V23.6137H21.5919L21.5851 24.8502ZM21.8825 15.4143H21.2026C21.1337 15.4175 21.0664 15.3934 21.0151 15.3472C20.9639 15.3009 20.9329 15.2363 20.929 15.1673V14.8267C20.8503 14.7943 20.7866 14.7335 20.7505 14.6563L20.4938 14.7892C20.4313 14.8228 20.3586 14.8321 20.2897 14.8155C20.2207 14.7988 20.1603 14.7573 20.1199 14.6989L19.9159 14.3787C19.8969 14.3506 19.8843 14.3186 19.8791 14.2851C19.8739 14.2515 19.8762 14.2172 19.8858 14.1847C19.8954 14.1521 19.912 14.1221 19.9346 14.0967C19.9571 14.0714 19.985 14.0513 20.0162 14.0381L21.1261 13.4573C21.1925 13.4218 21.2696 13.4122 21.3426 13.4301C21.4157 13.448 21.4796 13.4922 21.5222 13.5544L21.7108 13.849C21.7295 13.8787 21.7417 13.9121 21.7465 13.947C21.7513 13.9818 21.7486 14.0172 21.7386 14.0509C21.7286 14.0846 21.7116 14.1158 21.6886 14.1424C21.6657 14.1689 21.6373 14.1903 21.6055 14.205L21.3352 14.3464C21.3821 14.3968 21.4082 14.4631 21.4083 14.532C21.4065 14.5942 21.3859 14.6545 21.3492 14.7047C21.3124 14.7549 21.2613 14.7927 21.2026 14.813V15.1537H21.8825V15.4143ZM2.32525 28.9891H2.25386V28.8801L2.44423 28.8392L2.6346 28.8801V28.9891H2.56322V33.9915H2.32525V28.9891ZM0.260061 32.8622C0.353499 33.1741 0.424504 33.4923 0.472529 33.8143V34L0.00509927 33.9796V31.8062C0.00283294 31.8255 0.00679896 31.8454 0.0169974 31.8658C0.0807635 32.2018 0.161319 32.5344 0.258361 32.8622M0.231165 5.46739C0.210181 5.60466 0.223019 5.745 0.26856 5.87616C0.304254 5.91534 0.33145 5.87616 0.33145 5.78249C0.32658 5.74282 0.337358 5.70283 0.361488 5.67101C0.385618 5.63919 0.421192 5.61808 0.460631 5.61216C0.591511 5.61216 0.810779 6.3139 0.746188 6.5285C0.727491 6.59152 0.793781 6.69883 0.894066 6.74481C1.17792 6.90492 1.19492 7.22513 0.914463 7.16551C0.703695 7.11953 0.698595 7.12804 0.817577 7.32051C0.979053 7.5794 0.977354 7.62879 0.80228 7.83148C0.6697 7.98136 0.673099 8.0018 0.846473 8.13976C0.951154 8.22419 1.01835 8.34661 1.03345 8.48041C1.03759 8.53831 1.05511 8.59444 1.0846 8.64439C1.1141 8.69435 1.15478 8.73675 1.20342 8.76826C1.54337 8.97265 1.39889 10.3489 1.03345 10.3489C0.985852 10.3489 0.950158 10.4255 0.953557 10.5192C0.956957 10.6129 0.979053 10.6418 1.00455 10.5686C1.01917 10.5346 1.0427 10.5053 1.07263 10.4837C1.10256 10.4621 1.13777 10.4491 1.17452 10.4459C1.19272 10.4445 1.21044 10.4393 1.22662 10.4308C1.24279 10.4224 1.2571 10.4107 1.26868 10.3965C1.28026 10.3824 1.28887 10.3661 1.29402 10.3485C1.29916 10.3309 1.30072 10.3125 1.29861 10.2944C1.29961 10.2528 1.31143 10.2123 1.3329 10.1767C1.35437 10.1412 1.38473 10.1118 1.42099 10.0917C1.45973 10.0661 1.4886 10.028 1.50282 9.98367C1.51703 9.93938 1.51575 9.89156 1.49918 9.84811C1.44818 9.6318 1.63855 9.58752 1.80683 9.77658C1.9751 9.96563 1.93941 10.1819 1.75924 10.1172C1.65499 10.0775 1.67028 10.1155 1.80513 10.2313C1.95032 10.3747 2.05088 10.5573 2.09463 10.7568C2.13837 10.9563 2.12342 11.1643 2.05159 11.3555C1.93261 11.5462 1.93431 11.5956 2.06859 11.8494C2.18757 12.0759 2.19437 12.1492 2.10428 12.2122C2.0142 12.2752 2.0193 12.3144 2.12298 12.4115C2.19642 12.6167 2.22532 12.8354 2.20773 13.0527C2.19014 13.2701 2.12648 13.4811 2.021 13.6719C1.86802 13.8081 2.0091 14.0926 2.23007 14.0926C2.26557 14.0964 2.29813 14.1142 2.32071 14.1419C2.34329 14.1696 2.35408 14.2051 2.35075 14.2408C2.35075 14.3327 2.26916 14.3889 2.13488 14.3889C2.0006 14.3889 1.93261 14.4315 1.96491 14.5252C1.97828 14.5596 1.98122 14.5972 1.97336 14.6332C1.9655 14.6693 1.94718 14.7022 1.92071 14.7279C1.85839 14.7688 1.86349 14.8556 1.93601 14.9885C2.0261 15.1588 2.0176 15.2082 1.88502 15.3291C1.75244 15.4501 1.74224 15.4892 1.84082 15.6698C1.93941 15.8503 1.93091 15.8963 1.85272 15.9508C1.82011 15.9866 1.79551 16.029 1.78056 16.0751C1.76561 16.1212 1.76066 16.17 1.76604 16.2182C1.77453 16.3289 1.73374 16.4039 1.67255 16.3885C1.61136 16.3732 1.56207 16.4022 1.56207 16.4464C1.56207 16.6168 1.67765 16.644 1.86122 16.5095C2.04479 16.3749 2.07879 16.3868 2.26236 16.5316C2.44593 16.6764 2.47143 16.7019 2.33035 16.4703C2.16038 16.2046 2.21647 15.9712 2.44083 15.9712C2.61081 15.9712 2.78078 16.6423 2.6635 16.845C2.6445 16.9611 2.66234 17.0802 2.71449 17.1857C2.74873 17.2589 2.76773 17.3383 2.77036 17.4191C2.77299 17.4999 2.75919 17.5804 2.72979 17.6557C2.69918 17.7357 2.68666 17.8215 2.69312 17.9069C2.69959 17.9923 2.72488 18.0752 2.76718 18.1497C2.83176 18.3323 2.85771 18.5264 2.84337 18.7197C2.82903 18.9129 2.77472 19.101 2.6839 19.2721C2.62724 19.313 2.63574 19.3601 2.70939 19.4135C2.87937 19.531 2.6465 19.8018 2.36944 19.8018C2.19947 19.8018 2.16548 19.841 2.19947 19.9568C2.23164 20.0589 2.24993 20.1649 2.25386 20.2719C2.25386 20.4048 2.27086 20.4014 2.37114 20.2481C2.59211 19.9074 2.75699 20.1254 2.75699 20.759C2.75699 21.3347 2.52922 21.781 2.22837 21.781C2.17227 21.781 2.21477 21.8508 2.32185 21.9343C2.59041 22.1472 2.56492 22.2749 2.25386 22.2749C1.98077 22.2749 1.92411 22.3612 2.08389 22.5338C2.14508 22.6036 2.11618 22.7178 1.9904 22.8966C1.90387 23.0096 1.8447 23.1412 1.81756 23.281C1.79043 23.4208 1.79606 23.565 1.83402 23.7022C1.85612 23.8538 1.81363 23.8981 1.64365 23.8981C1.47368 23.8981 1.20512 24.0531 1.20512 24.174C1.20512 24.1962 1.3037 24.1945 1.42439 24.174C1.72184 24.111 1.72354 24.4619 1.42439 24.7957C1.36996 24.8445 1.32662 24.9044 1.2973 24.9714C1.26798 25.0384 1.25335 25.1109 1.25441 25.184C1.319 25.3748 1.46178 25.3731 1.46178 25.184C1.46039 25.1661 1.46255 25.1481 1.46812 25.1311C1.4737 25.114 1.48259 25.0982 1.49428 25.0846C1.50597 25.071 1.52022 25.0598 1.53623 25.0518C1.55224 25.0437 1.56969 25.0389 1.58756 25.0376C1.74564 25.0376 2.0244 25.6712 1.95471 25.8722C1.92411 25.9641 1.95471 26.022 2.0329 26.022C2.05106 26.0229 2.06888 26.0274 2.08528 26.0353C2.10168 26.0432 2.11634 26.0543 2.12838 26.0679C2.14043 26.0816 2.14962 26.0975 2.1554 26.1148C2.16119 26.1321 2.16346 26.1503 2.16208 26.1685C2.15668 26.2098 2.13642 26.2476 2.10511 26.2749C2.0738 26.3022 2.0336 26.3171 1.9921 26.3167C1.80683 26.3167 1.75584 26.4598 1.90371 26.562C2.05159 26.6642 1.9955 26.9026 1.78813 26.9605C1.61816 27.0082 1.59266 27.0678 1.61816 27.3199C1.65555 27.6095 1.64705 27.6197 1.38359 27.5771C1.23232 27.5515 1.10823 27.5771 1.10823 27.6129C1.10823 27.6486 1.20852 27.6946 1.3309 27.6946C1.58246 27.6946 1.72184 27.9654 1.53827 28.0966C1.44478 28.1613 1.46008 28.1834 1.60286 28.1852C1.64905 28.1882 1.69383 28.2023 1.73345 28.2263C1.77306 28.2502 1.80635 28.2834 1.8305 28.323C1.85466 28.3625 1.86898 28.4073 1.87225 28.4536C1.87553 28.4999 1.86766 28.5462 1.84932 28.5888C1.82944 28.6154 1.80384 28.6372 1.77441 28.6525C1.74499 28.6679 1.7125 28.6764 1.67935 28.6774C1.61136 28.6774 1.55357 28.7643 1.55357 28.8699C1.56008 28.9581 1.53203 29.0455 1.47538 29.1134C1.39779 29.2334 1.35162 29.3711 1.3411 29.5137C1.29691 29.7794 1.23911 29.8543 1.09804 29.8543C0.917862 29.8543 0.917862 29.8543 1.07424 30.0536C1.28841 30.3193 1.12013 30.5561 0.851572 30.367C0.583012 30.1779 0.46403 30.2188 0.627206 30.4011C0.810778 30.6089 0.797181 30.6753 0.569415 30.7894C0.407883 30.9273 0.275388 31.0961 0.179665 31.2859C0.0839425 31.4757 0.0269102 31.6827 0.0118982 31.8948C0.0118982 31.8761 0.00339949 31.8539 0 31.8352V4.97345C0.0880269 5.01811 0.158609 5.091 0.200501 5.18051C0.242394 5.27003 0.253188 5.37101 0.231165 5.46739ZM8.6891 28.9891H8.62111V28.8801L8.80808 28.8392L8.99845 28.8801V28.9891H8.92876V33.9915H8.6908L8.6891 28.9891ZM8.54802 29.2037H2.6907V33.9915H8.54802V29.2037ZM4.53662 30.1285H3.01875V29.6738H4.53492L4.53662 30.1285ZM4.53662 30.6872H3.01875V30.3466H4.53492L4.53662 30.6872ZM4.53662 31.2442H3.01875V30.9035H4.53492L4.53662 31.2442ZM4.53662 31.8011H3.01875V31.4605H4.53492L4.53662 31.8011ZM4.53662 32.3598H3.01875V32.0191H4.53492L4.53662 32.3598ZM4.53662 32.9167H3.01875V32.5761H4.53492L4.53662 32.9167ZM4.53662 33.5197H3.01875V33.1416H4.53492L4.53662 33.5197ZM6.38594 30.1285H4.86977V29.6738H6.38594V30.1285ZM6.38594 30.6872H4.86977V30.3466H6.38594V30.6872ZM6.38594 31.2442H4.86977V30.9035H6.38594V31.2442ZM6.38594 31.8011H4.86977V31.4605H6.38594V31.8011ZM6.38594 32.3598H4.86977V32.0191H6.38594V32.3598ZM6.38594 32.9167H4.86977V32.5761H6.38594V32.9167ZM6.38594 33.5197H4.86977V33.1416H6.38594V33.5197ZM8.23866 30.1285H6.72249V29.6738H8.23866V30.1285ZM8.23866 30.6872H6.72249V30.3466H8.23866V30.6872ZM8.23866 31.2442H6.72249V30.9035H8.23866V31.2442ZM8.23866 31.8011H6.72249V31.4605H8.23866V31.8011ZM8.23866 32.3598H6.72249V32.0191H8.23866V32.3598ZM8.23866 32.9167H6.72249V32.5761H8.23866V32.9167ZM8.23866 33.5197H6.72249V33.1416H8.23866V33.5197ZM15.0784 28.9891H15.007V28.8801L15.1974 28.8392L15.3878 28.8801V28.9891H15.3164V33.9915H15.0784V28.9891ZM14.9374 29.2037H9.08174V33.9915H14.9391L14.9374 29.2037ZM10.9226 30.1285H9.40639V29.6738H10.9226V30.1285ZM10.9226 30.6872H9.40639V30.3466H10.9226V30.6872ZM10.9226 31.2442H9.40639V30.9035H10.9226V31.2442ZM10.9226 31.8011H9.40639V31.4605H10.9226V31.8011ZM10.9226 32.3598H9.40639V32.0191H10.9226V32.3598ZM10.9226 32.9167H9.40639V32.5761H10.9226V32.9167ZM10.9226 33.5197H9.40639V33.1416H10.9226V33.5197ZM12.7753 30.1285H11.2574V29.6738H12.7719L12.7753 30.1285ZM12.7753 30.6872H11.2574V30.3466H12.7719L12.7753 30.6872ZM12.7753 31.2442H11.2574V30.9035H12.7719L12.7753 31.2442ZM12.7753 31.8011H11.2574V31.4605H12.7719L12.7753 31.8011ZM12.7753 32.3598H11.2574V32.0191H12.7719L12.7753 32.3598ZM12.7753 32.9167H11.2574V32.5761H12.7719L12.7753 32.9167ZM12.7753 33.5197H11.2574V33.1416H12.7719L12.7753 33.5197ZM14.628 30.1285H13.105V29.6738H14.6348L14.628 30.1285ZM14.628 30.6872H13.105V30.3466H14.6348L14.628 30.6872ZM14.628 31.2442H13.105V30.9035H14.6348L14.628 31.2442ZM14.628 31.8011H13.105V31.4605H14.6348L14.628 31.8011ZM14.628 32.3598H13.105V32.0191H14.6348L14.628 32.3598ZM14.628 32.9167H13.105V32.5761H14.6348L14.628 32.9167ZM14.628 33.5197H13.105V33.1416H14.6348L14.628 33.5197ZM21.4661 28.9891H21.3947V28.8801L21.5851 28.8392L21.7754 28.8801V28.9891H21.704V33.9915H21.4661V28.9891ZM21.3233 29.2037H15.466V33.9915H21.3233V29.2037ZM17.3119 30.1285H15.794V29.6738H17.3102L17.3119 30.1285ZM17.3119 30.6872H15.794V30.3466H17.3102L17.3119 30.6872ZM17.3119 31.2442H15.794V30.9035H17.3102L17.3119 31.2442ZM17.3119 31.8011H15.794V31.4605H17.3102L17.3119 31.8011ZM17.3119 32.3598H15.794V32.0191H17.3102L17.3119 32.3598ZM17.3119 32.9167H15.794V32.5761H17.3102L17.3119 32.9167ZM17.3119 33.5197H15.794V33.1416H17.3102L17.3119 33.5197ZM19.1612 30.1285H17.6451V29.6738H19.1612V30.1285ZM19.1612 30.6872H17.6451V30.3466H19.1612V30.6872ZM19.1612 31.2442H17.6451V30.9035H19.1612V31.2442ZM19.1612 31.8011H17.6451V31.4605H19.1612V31.8011ZM19.1612 32.3598H17.6451V32.0191H19.1612V32.3598ZM19.1612 32.9167H17.6451V32.5761H19.1612V32.9167ZM19.1612 33.5197H17.6451V33.1416H19.1612V33.5197ZM21.0139 30.1285H19.4978V29.6738H21.0139V30.1285ZM21.0139 30.6872H19.4978V30.3466H21.0139V30.6872ZM21.0139 31.2442H19.4978V30.9035H21.0139V31.2442ZM21.0139 31.8011H19.4978V31.4605H21.0139V31.8011ZM21.0139 32.3598H19.4978V32.0191H21.0139V32.3598ZM21.0139 32.9167H19.4978V32.5761H21.0139V32.9167ZM21.0139 33.5197H19.4978V33.1416H21.0139V33.5197ZM29.6521 29.8015H28.0475V33.2659H29.6521V29.8015ZM29.2849 32.898H28.4469V30.1728H29.2849V32.898ZM27.7432 29.8015H26.1574V33.2659H27.7432V29.8015ZM27.3863 32.8997H26.5364V30.1745H27.3863V32.8997ZM29.6317 23.7959H26.137V29.0351H29.6317V23.7959ZM29.3546 24.9882H26.3511V24.0804H29.3563L29.3546 24.9882ZM29.3988 25.3288H29.3563V25.2828H26.3511V25.3288H26.3087C26.2833 25.2467 26.2833 25.1588 26.3087 25.0767H26.3511V25.1227H29.3631V25.0767H29.4039C29.4243 25.075 29.4243 25.3288 29.3988 25.3288ZM21.8723 25.2079V33.9966H25.4554V22.7041H30.3489L30.3388 33.5844V33.9966H34V0L19.6677 11.6757H21.8774V15.0822H21.8876V15.4109H21.8774V23.2594H21.8876L21.8859 25.2079H21.8723ZM25.486 18.5108V11.7336H30.2759V11.8937L30.2895 18.366V18.5142L25.605 18.5244L25.486 18.5108ZM29.8832 12.1066H25.8837L25.9109 18.0952H29.9087L29.8832 12.1066ZM29.6317 13.5697H26.137V12.2769H29.6317V13.5697ZM29.6096 14.0534H29.562V13.9887H26.2067V14.0534H26.1591C26.1293 13.9355 26.1293 13.812 26.1591 13.694H26.205V13.7587H29.5603V13.694H29.6062C29.6371 13.8117 29.6382 13.9352 29.6096 14.0534Z" fill="#111111"/>
</svg>
