<svg width="38" height="37" viewBox="0 0 38 37" fill="none" xmlns="http://www.w3.org/2000/svg">
<path d="M33.003 0C31.8815 0.00161926 29.8266 0.796431 29.0789 1.61926H3.55587C0.923719 1.61926 0.923719 6.80088 3.55587 6.80088H29.0796C29.8271 7.62346 31.8817 8.41835 33.0031 8.42013C34.4116 8.41811 35.7123 7.35385 36.4167 6.15317H33.1676L31.358 4.21007L33.1676 2.26696H36.4182C35.7137 1.06588 34.4121 0.00145733 33.003 0ZM4.87194 2.91466C5.59883 2.91466 6.18802 3.4946 6.18802 4.21007C6.18802 4.92553 5.59883 5.50547 4.87194 5.50547C4.14506 5.50547 3.55587 4.92553 3.55587 4.21007C3.55587 3.4946 4.14514 2.91466 4.87194 2.91466ZM11.1044 12.3873C10.4463 12.3873 9.96679 12.7142 9.44563 13.1008C8.92446 13.4874 8.37796 13.9869 7.79716 14.5314C6.666 15.5917 5.40331 16.8219 4.2102 17.6257L7.94514 17.7176C8.86392 16.0216 9.44851 14.4478 11.1044 13.8446H16.9445V17.9391L18.425 17.9755V13.8446H20.3169C21.2628 13.8446 22.8625 14.6935 24.4606 15.9519C25.3229 16.6309 26.1933 17.41 27.0202 18.1871L31.1009 18.2875L35.1913 13.5902L34.0671 12.6418L29.1946 18.237C28.0469 17.1177 26.7309 15.8732 25.3857 14.8139C23.6935 13.4817 22.0031 12.3873 20.3169 12.3873H11.1044ZM1.88988 19.0266C1.47902 19.0272 0.982285 19.2517 0.605641 19.6225C0.228421 19.9936 0 20.4836 0 20.8884C0 21.9409 0.598485 23.5003 1.36814 24.7123C1.72636 25.2766 2.11855 25.7693 2.46871 26.114C2.46863 26.0992 2.46764 26.0848 2.46764 26.07C2.46764 23.5299 4.5755 21.4551 7.15615 21.4551C9.73681 21.4551 11.8447 23.5299 11.8447 26.07C11.8447 26.2619 11.8313 26.4509 11.8079 26.6368H27.5098C27.4858 26.4488 27.4735 26.2595 27.4731 26.07C27.4731 23.5299 29.5809 21.4551 32.1616 21.4551C34.7422 21.4551 36.8501 23.5299 36.8501 26.07C36.8501 26.2619 36.8367 26.4509 36.8133 26.6368H37.5858L38 22.967C37.9913 21.9289 37.4838 21.1871 36.7988 20.6477C36.1079 20.1036 35.205 19.8359 34.7937 19.8359H34.7843L1.88988 19.0266ZM7.15615 22.9125C5.37567 22.9125 3.94822 24.3175 3.94822 26.07C3.94822 27.8225 5.37567 29.2276 7.15615 29.2276C8.93656 29.2276 10.3641 27.8225 10.3641 26.07C10.3641 24.3175 8.93656 22.9125 7.15615 22.9125ZM32.1616 22.9125C30.3811 22.9125 28.9536 24.3175 28.9536 26.07C28.9536 27.8225 30.3811 29.2276 32.1616 29.2276C33.942 29.2276 35.3695 27.8225 35.3695 26.07C35.3695 24.3175 33.942 22.9125 32.1616 22.9125ZM14.4768 28.0941V29.2276H23.5248V28.0941H14.4768ZM18.425 30.6849V34.4092H19.5766V30.6849H18.425ZM15.5101 35.8665L14.9343 37H23.0672L22.4915 35.8665H15.5101Z" fill="#111111"/>
</svg>
